<?xml version="1.0" encoding="UTF-8" standalone="no"?>
<svg width="50px" height="50px" viewBox="0 0 50 50" version="1.1" xmlns="http://www.w3.org/2000/svg" xmlns:xlink="http://www.w3.org/1999/xlink">
    <!-- Generator: Sketch 3.7.2 (28276) - http://www.bohemiancoding.com/sketch -->
    <title>editpage_on</title>
    <desc>Created with Sketch.</desc>
    <defs></defs>
    <g id="Page-1" stroke="none" stroke-width="1" fill="none" fill-rule="evenodd">
        <g id="Desktop" transform="translate(-919.000000, -1102.000000)">
            <g id="editpage_on" transform="translate(919.000000, 1102.000000)">
                <g id="Group-2" transform="translate(6.000000, 6.000000)">
                    <path d="M1.83333333,36.16 C1.71111111,35.9822222 1.53555556,35.6088889 1.72666667,35.1288889 L5.91111111,24.6666667 C5.96888889,24.5266667 6.05111111,24.4 6.15555556,24.2955556 L27.8311111,2.62 C28.4622222,1.98666667 29.2977778,1.64222222 30.1911111,1.64222222 C31.0844444,1.64222222 31.92,1.98666667 32.5511111,2.62 L35.6844444,5.75333333 C36.9866667,7.05333333 36.9866667,9.17555556 35.6844444,10.4733333 L14.0133333,32.1444444 C13.9022222,32.2511111 13.7822222,32.3355556 13.64,32.3888889 L3.17777778,36.5777778 C3.03777778,36.6377778 2.89555556,36.6666667 2.75555556,36.6666667 C2.4,36.6666667 2.04444444,36.4733333 1.83333333,36.16 Z" id="Shape" stroke="#777677" fill="#FFF6CA"></path>
                    <path d="M32.7693141,12.6754046 L35.4448782,10.0048888 C35.9194122,9.52530655 36.1844444,8.89427729 36.1844444,8.21276569 C36.1844444,7.53882644 35.9194122,6.90022483 35.4398299,6.42569082 L32,2.99999999 C31.5204177,2.52041775 30.7702134,2.12459539 30.0887018,2.12459539 C29.4147626,2.12459539 28.7761609,2.38710356 28.3016269,2.8666858 L25.6311111,5.53720163" id="Shape" fill="#FBD4D3"></path>
                    <path d="M26,4 L34,12 L33,13 L25,5.00000002 L26,4 Z M7,24 L15,32 L13,32 L6,25 L7,24 Z" id="Shape" fill="#777677"></path>
                </g>
            </g>
        </g>
    </g>
</svg>